<?xml version="1.0" encoding="utf-8"?>
<!-- Generator: Adobe Illustrator 24.1.2, SVG Export Plug-In . SVG Version: 6.00 Build 0)  -->
<svg version="1.1" id="Layer_1" xmlns="http://www.w3.org/2000/svg" xmlns:xlink="http://www.w3.org/1999/xlink" x="0px" y="0px"
	 width="507.7px" height="435.3px" viewBox="0 0 507.7 435.3" style="enable-background:new 0 0 507.7 435.3;" xml:space="preserve"
	>
<style type="text/css">
	.st0{display:none;}
	.st1{fill:#FFFFFF;}
</style>
<rect x="-0.1" y="-0.3" class="st0" width="508" height="436"/>
<g>
	<circle class="st1" cx="247.4" cy="217.2" r="109"/>
</g>
<path class="st1" d="M389.4,217.2c0.3,37.2-14.9,74.2-41.1,100.9c-13.1,13.3-28.7,24.3-46,31.7c-17.2,7.5-36,11.6-54.9,11.9
	c-18.9,0.3-38-3-55.7-10.1c-17.7-7-34.1-17.6-47.8-31c-13.7-13.4-24.8-29.5-32.2-47.3c-7.4-17.7-11.3-37-11.3-56.2
	c0-19.2,3.9-38.5,11.3-56.2c7.4-17.7,18.5-33.8,32.2-47.3c13.7-13.4,30.1-24,47.8-31c17.7-7,36.8-10.4,55.7-10.1
	c18.9,0.3,37.7,4.4,54.9,11.9c17.3,7.4,32.9,18.4,46,31.7C374.5,142.9,389.6,179.9,389.4,217.2z M389.4,217.2
	c-0.1-18.6-3.8-37.2-11-54.3c-7.2-17.1-17.9-32.7-31.1-45.6c-13.2-12.9-29.1-23.1-46.1-29.9c-17.1-6.8-35.5-10-53.8-9.7
	c-18.3,0.3-36.4,4.3-53,11.5c-8.3,3.6-16.3,8-23.7,13.2c-7.4,5.1-14.3,11-20.7,17.4c-25.3,25.8-39.9,61.4-39.6,97.4
	c-0.2,35.9,14.3,71.6,39.6,97.4c12.6,12.9,27.7,23.4,44.4,30.6c16.6,7.2,34.7,11.2,53,11.5c18.3,0.3,36.7-2.9,53.8-9.7
	c17.1-6.8,32.9-17,46.1-29.9c13.2-13,23.9-28.5,31.1-45.6C385.6,254.3,389.3,235.8,389.4,217.2z"/>
<path class="st1" d="M246.9,37.7c23.6-0.1,47.2,4.5,69,13.5c10.9,4.5,21.4,10,31.3,16.5c9.9,6.5,19.1,14,27.5,22.2
	c16.9,16.6,30.6,36.4,39.9,58.3c9.4,21.8,14.5,45.6,14.8,69.5c0.3,23.9-4,47.9-13,70.2c-8.9,22.3-22.3,42.9-39.2,60.1
	c-16.9,17.2-37.3,31.1-59.6,40.4c-22.3,9.3-46.5,14.2-70.7,14.2c-24.2-0.1-48.4-4.9-70.7-14.2c-22.3-9.3-42.7-23.3-59.6-40.4
	c-16.9-17.2-30.3-37.8-39.2-60.1c-8.9-22.3-13.3-46.4-13-70.2c0.3-23.9,5.4-47.6,14.8-69.5c9.3-21.9,23.1-41.7,39.9-58.3
	c8.4-8.3,17.7-15.8,27.5-22.2c9.9-6.5,20.4-12,31.3-16.5C199.7,42.2,223.3,37.6,246.9,37.7z M246.9,37.7
	c-23.6,0.1-47.1,4.8-68.8,13.9c-21.7,9.1-41.5,22.6-58,39.4c-16.5,16.7-29.5,36.8-38.1,58.5c-8.7,21.7-12.9,45.1-12.6,68.3
	c0.3,23.2,5.3,46.3,14.4,67.5c4.6,10.6,10.2,20.8,16.7,30.3c6.5,9.5,14,18.3,22.2,26.4c8.2,8.1,17.2,15.3,26.8,21.6
	c9.6,6.3,19.8,11.6,30.4,16c21.2,8.7,44.1,13.2,67,13.1c22.9,0.1,45.8-4.4,67-13.1c21.2-8.7,40.8-21.5,57.2-37.6
	c16.4-16.1,29.8-35.4,38.9-56.7c9.2-21.2,14.1-44.3,14.4-67.6c0.3-23.2-3.9-46.6-12.6-68.3c-8.7-21.7-21.7-41.7-38.1-58.5
	c-16.5-16.7-36.2-30.3-58-39.4C294,42.4,270.4,37.7,246.9,37.7z"/>
<circle class="st1" cx="116.9" cy="262.7" r="22"/>
<circle class="st1" cx="410.9" cy="144.7" r="22"/>
</svg>
